<svg xmlns="http://www.w3.org/2000/svg" xmlns:xlink="http://www.w3.org/1999/xlink" width="500" zoomAndPan="magnify" viewBox="0 0 375 74.999997" height="100" preserveAspectRatio="xMidYMid meet" version="1.0"><defs><g/><clipPath id="id1"><path d="M 15 5.617188 L 108 5.617188 L 108 69.367188 L 15 69.367188 Z M 15 5.617188 " clip-rule="nonzero"/></clipPath></defs><g fill="#ffffff" fill-opacity="1"><g transform="translate(113.857274, 47.378474)"><g><path d="M 18.265625 -14.59375 C 20.035156 -14.59375 21.257812 -14.050781 21.9375 -12.96875 C 22.613281 -11.894531 22.953125 -10.398438 22.953125 -8.484375 L 22.953125 -1.640625 C 22.953125 -1.171875 22.800781 -0.78125 22.5 -0.46875 C 22.195312 -0.15625 21.8125 0 21.34375 0 C 20.875 0 20.488281 -0.15625 20.1875 -0.46875 C 19.882812 -0.78125 19.734375 -1.171875 19.734375 -1.640625 L 19.734375 -8.484375 C 19.734375 -9.472656 19.539062 -10.25 19.15625 -10.8125 C 18.78125 -11.375 18.109375 -11.65625 17.140625 -11.65625 C 16.140625 -11.65625 15.359375 -11.351562 14.796875 -10.75 C 14.234375 -10.15625 13.953125 -9.398438 13.953125 -8.484375 L 13.953125 -1.640625 C 13.953125 -1.171875 13.800781 -0.78125 13.5 -0.46875 C 13.195312 -0.15625 12.8125 0 12.34375 0 C 11.882812 0 11.5 -0.15625 11.1875 -0.46875 C 10.882812 -0.78125 10.734375 -1.171875 10.734375 -1.640625 L 10.734375 -8.484375 C 10.734375 -9.472656 10.539062 -10.25 10.15625 -10.8125 C 9.78125 -11.375 9.109375 -11.65625 8.140625 -11.65625 C 7.140625 -11.65625 6.359375 -11.351562 5.796875 -10.75 C 5.234375 -10.15625 4.953125 -9.398438 4.953125 -8.484375 L 4.953125 -1.640625 C 4.953125 -1.171875 4.800781 -0.78125 4.5 -0.46875 C 4.195312 -0.15625 3.8125 0 3.34375 0 C 2.882812 0 2.5 -0.15625 2.1875 -0.46875 C 1.882812 -0.78125 1.734375 -1.171875 1.734375 -1.640625 L 1.734375 -12.6875 C 1.734375 -13.15625 1.882812 -13.546875 2.1875 -13.859375 C 2.5 -14.171875 2.882812 -14.328125 3.34375 -14.328125 C 3.8125 -14.328125 4.195312 -14.171875 4.5 -13.859375 C 4.800781 -13.546875 4.953125 -13.15625 4.953125 -12.6875 L 4.953125 -12.265625 C 5.429688 -12.910156 6.039062 -13.457031 6.78125 -13.90625 C 7.53125 -14.363281 8.359375 -14.59375 9.265625 -14.59375 C 11.515625 -14.59375 12.953125 -13.613281 13.578125 -11.65625 C 13.984375 -12.40625 14.601562 -13.082031 15.4375 -13.6875 C 16.269531 -14.289062 17.210938 -14.59375 18.265625 -14.59375 Z M 18.265625 -14.59375 "/></g></g></g><g fill="#ffffff" fill-opacity="1"><g transform="translate(139.318647, 47.378474)"><g><path d="M 13.34375 -14.59375 C 13.800781 -14.59375 14.179688 -14.441406 14.484375 -14.140625 C 14.785156 -13.835938 14.9375 -13.445312 14.9375 -12.96875 L 14.9375 -1.640625 C 14.9375 -1.171875 14.785156 -0.78125 14.484375 -0.46875 C 14.179688 -0.15625 13.800781 0 13.34375 0 C 12.875 0 12.488281 -0.148438 12.1875 -0.453125 C 11.894531 -0.753906 11.742188 -1.140625 11.734375 -1.609375 C 11.285156 -1.085938 10.679688 -0.644531 9.921875 -0.28125 C 9.160156 0.0820312 8.363281 0.265625 7.53125 0.265625 C 6.289062 0.265625 5.171875 -0.0507812 4.171875 -0.6875 C 3.171875 -1.320312 2.378906 -2.203125 1.796875 -3.328125 C 1.222656 -4.453125 0.9375 -5.726562 0.9375 -7.15625 C 0.9375 -8.582031 1.222656 -9.859375 1.796875 -10.984375 C 2.367188 -12.117188 3.148438 -13.003906 4.140625 -13.640625 C 5.128906 -14.273438 6.222656 -14.59375 7.421875 -14.59375 C 8.273438 -14.59375 9.078125 -14.4375 9.828125 -14.125 C 10.578125 -13.8125 11.210938 -13.414062 11.734375 -12.9375 L 11.734375 -12.96875 C 11.734375 -13.425781 11.882812 -13.8125 12.1875 -14.125 C 12.488281 -14.4375 12.875 -14.59375 13.34375 -14.59375 Z M 7.921875 -2.671875 C 9.085938 -2.671875 10.035156 -3.09375 10.765625 -3.9375 C 11.492188 -4.789062 11.859375 -5.863281 11.859375 -7.15625 C 11.859375 -8.4375 11.492188 -9.503906 10.765625 -10.359375 C 10.035156 -11.222656 9.085938 -11.65625 7.921875 -11.65625 C 6.785156 -11.65625 5.847656 -11.222656 5.109375 -10.359375 C 4.378906 -9.503906 4.015625 -8.4375 4.015625 -7.15625 C 4.015625 -5.863281 4.375 -4.789062 5.09375 -3.9375 C 5.820312 -3.09375 6.765625 -2.671875 7.921875 -2.671875 Z M 7.921875 -2.671875 "/></g></g></g><g fill="#ffffff" fill-opacity="1"><g transform="translate(156.774918, 47.378474)"><g><path d="M 9.1875 -14.59375 C 9.71875 -14.59375 10.164062 -14.441406 10.53125 -14.140625 C 10.90625 -13.835938 11.09375 -13.476562 11.09375 -13.0625 C 11.09375 -12.507812 10.945312 -12.09375 10.65625 -11.8125 C 10.375 -11.539062 10.035156 -11.40625 9.640625 -11.40625 C 9.367188 -11.40625 9.066406 -11.46875 8.734375 -11.59375 C 8.679688 -11.613281 8.5625 -11.648438 8.375 -11.703125 C 8.1875 -11.753906 7.984375 -11.78125 7.765625 -11.78125 C 7.296875 -11.78125 6.847656 -11.632812 6.421875 -11.34375 C 5.992188 -11.0625 5.640625 -10.628906 5.359375 -10.046875 C 5.085938 -9.472656 4.953125 -8.785156 4.953125 -7.984375 L 4.953125 -1.640625 C 4.953125 -1.171875 4.800781 -0.78125 4.5 -0.46875 C 4.195312 -0.15625 3.8125 0 3.34375 0 C 2.882812 0 2.5 -0.15625 2.1875 -0.46875 C 1.882812 -0.78125 1.734375 -1.171875 1.734375 -1.640625 L 1.734375 -12.6875 C 1.734375 -13.15625 1.882812 -13.546875 2.1875 -13.859375 C 2.5 -14.171875 2.882812 -14.328125 3.34375 -14.328125 C 3.8125 -14.328125 4.195312 -14.171875 4.5 -13.859375 C 4.800781 -13.546875 4.953125 -13.15625 4.953125 -12.6875 L 4.953125 -12.34375 C 5.367188 -13.070312 5.957031 -13.628906 6.71875 -14.015625 C 7.488281 -14.398438 8.3125 -14.59375 9.1875 -14.59375 Z M 9.1875 -14.59375 "/></g></g></g><g fill="#ffffff" fill-opacity="1"><g transform="translate(169.17111, 47.378474)"><g><path d="M 7.984375 -14.59375 C 9.492188 -14.59375 10.710938 -14.351562 11.640625 -13.875 C 12.578125 -13.40625 13.046875 -12.78125 13.046875 -12 C 13.046875 -11.601562 12.925781 -11.257812 12.6875 -10.96875 C 12.457031 -10.675781 12.15625 -10.53125 11.78125 -10.53125 C 11.5 -10.53125 11.265625 -10.566406 11.078125 -10.640625 C 10.898438 -10.722656 10.726562 -10.832031 10.5625 -10.96875 C 10.394531 -11.101562 10.226562 -11.210938 10.0625 -11.296875 C 9.882812 -11.390625 9.617188 -11.472656 9.265625 -11.546875 C 8.921875 -11.617188 8.644531 -11.65625 8.4375 -11.65625 C 7.09375 -11.65625 6.039062 -11.238281 5.28125 -10.40625 C 4.53125 -9.570312 4.15625 -8.488281 4.15625 -7.15625 C 4.15625 -5.863281 4.535156 -4.789062 5.296875 -3.9375 C 6.066406 -3.09375 7.050781 -2.671875 8.25 -2.671875 C 9.125 -2.671875 9.773438 -2.78125 10.203125 -3 C 10.304688 -3.050781 10.453125 -3.144531 10.640625 -3.28125 C 10.828125 -3.414062 11 -3.519531 11.15625 -3.59375 C 11.320312 -3.664062 11.519531 -3.703125 11.75 -3.703125 C 12.195312 -3.703125 12.550781 -3.554688 12.8125 -3.265625 C 13.070312 -2.984375 13.203125 -2.617188 13.203125 -2.171875 C 13.203125 -1.742188 12.953125 -1.34375 12.453125 -0.96875 C 11.953125 -0.59375 11.289062 -0.289062 10.46875 -0.0625 C 9.644531 0.15625 8.769531 0.265625 7.84375 0.265625 C 6.46875 0.265625 5.257812 -0.0507812 4.21875 -0.6875 C 3.175781 -1.332031 2.367188 -2.222656 1.796875 -3.359375 C 1.222656 -4.492188 0.9375 -5.757812 0.9375 -7.15625 C 0.9375 -8.59375 1.234375 -9.875 1.828125 -11 C 2.429688 -12.125 3.269531 -13.003906 4.34375 -13.640625 C 5.414062 -14.273438 6.628906 -14.59375 7.984375 -14.59375 Z M 7.984375 -14.59375 "/></g></g></g><g fill="#ffffff" fill-opacity="1"><g transform="translate(183.735911, 47.378474)"><g><path d="M 12.375 -14.328125 C 12.832031 -14.328125 13.210938 -14.171875 13.515625 -13.859375 C 13.828125 -13.546875 13.984375 -13.15625 13.984375 -12.6875 L 13.984375 -5.890625 C 13.984375 -3.960938 13.453125 -2.453125 12.390625 -1.359375 C 11.328125 -0.273438 9.8125 0.265625 7.84375 0.265625 C 5.882812 0.265625 4.375 -0.273438 3.3125 -1.359375 C 2.257812 -2.453125 1.734375 -3.960938 1.734375 -5.890625 L 1.734375 -12.6875 C 1.734375 -13.15625 1.882812 -13.546875 2.1875 -13.859375 C 2.5 -14.171875 2.882812 -14.328125 3.34375 -14.328125 C 3.8125 -14.328125 4.195312 -14.171875 4.5 -13.859375 C 4.800781 -13.546875 4.953125 -13.15625 4.953125 -12.6875 L 4.953125 -5.890625 C 4.953125 -4.804688 5.191406 -4 5.671875 -3.46875 C 6.160156 -2.9375 6.882812 -2.671875 7.84375 -2.671875 C 8.820312 -2.671875 9.550781 -2.9375 10.03125 -3.46875 C 10.519531 -4 10.765625 -4.804688 10.765625 -5.890625 L 10.765625 -12.6875 C 10.765625 -13.15625 10.914062 -13.546875 11.21875 -13.859375 C 11.519531 -14.171875 11.90625 -14.328125 12.375 -14.328125 Z M 12.375 -14.328125 "/></g></g></g><g fill="#ffffff" fill-opacity="1"><g transform="translate(200.228362, 47.378474)"><g><path d="M 0.90625 -2.21875 C 0.75 -2.4375 0.671875 -2.707031 0.671875 -3.03125 C 0.671875 -3.488281 0.898438 -3.878906 1.359375 -4.203125 C 1.609375 -4.367188 1.867188 -4.453125 2.140625 -4.453125 C 2.515625 -4.453125 2.875 -4.28125 3.21875 -3.9375 C 3.75 -3.382812 4.304688 -2.972656 4.890625 -2.703125 C 5.472656 -2.429688 6.171875 -2.296875 6.984375 -2.296875 C 8.378906 -2.359375 9.078125 -2.890625 9.078125 -3.890625 C 9.078125 -4.398438 8.835938 -4.789062 8.359375 -5.0625 C 7.890625 -5.332031 7.15625 -5.597656 6.15625 -5.859375 C 5.125 -6.148438 4.28125 -6.4375 3.625 -6.71875 C 2.976562 -7.007812 2.414062 -7.441406 1.9375 -8.015625 C 1.46875 -8.597656 1.234375 -9.378906 1.234375 -10.359375 C 1.234375 -11.222656 1.476562 -11.96875 1.96875 -12.59375 C 2.457031 -13.226562 3.097656 -13.71875 3.890625 -14.0625 C 4.691406 -14.414062 5.535156 -14.59375 6.421875 -14.59375 C 7.335938 -14.59375 8.25 -14.421875 9.15625 -14.078125 C 10.070312 -13.742188 10.785156 -13.25 11.296875 -12.59375 C 11.535156 -12.300781 11.65625 -11.976562 11.65625 -11.625 C 11.65625 -11.207031 11.484375 -10.867188 11.140625 -10.609375 C 10.890625 -10.410156 10.601562 -10.3125 10.28125 -10.3125 C 9.882812 -10.3125 9.5625 -10.4375 9.3125 -10.6875 C 9 -11.082031 8.585938 -11.394531 8.078125 -11.625 C 7.566406 -11.851562 6.988281 -11.96875 6.34375 -11.96875 C 4.988281 -11.96875 4.3125 -11.476562 4.3125 -10.5 C 4.3125 -10.101562 4.4375 -9.785156 4.6875 -9.546875 C 4.9375 -9.304688 5.253906 -9.117188 5.640625 -8.984375 C 6.023438 -8.847656 6.5625 -8.679688 7.25 -8.484375 C 8.21875 -8.222656 9.019531 -7.945312 9.65625 -7.65625 C 10.300781 -7.375 10.847656 -6.9375 11.296875 -6.34375 C 11.742188 -5.757812 11.96875 -4.984375 11.96875 -4.015625 C 11.96875 -3.140625 11.707031 -2.375 11.1875 -1.71875 C 10.675781 -1.070312 10.015625 -0.578125 9.203125 -0.234375 C 8.390625 0.0976562 7.554688 0.265625 6.703125 0.265625 C 5.515625 0.265625 4.410156 0.0703125 3.390625 -0.3125 C 2.378906 -0.707031 1.550781 -1.34375 0.90625 -2.21875 Z M 0.90625 -2.21875 "/></g></g></g><g fill="#ffffff" fill-opacity="1"><g transform="translate(213.909653, 47.378474)"><g/></g></g><g fill="#ffffff" fill-opacity="1"><g transform="translate(222.182814, 47.378474)"><g><path d="M 13.65625 -2.8125 C 14 -2.457031 14.171875 -2.054688 14.171875 -1.609375 C 14.171875 -1.160156 13.992188 -0.785156 13.640625 -0.484375 C 13.296875 -0.179688 12.925781 -0.03125 12.53125 -0.03125 C 12.070312 -0.03125 11.679688 -0.207031 11.359375 -0.5625 L 6.53125 -5.65625 L 5.21875 -4.453125 L 5.21875 -1.640625 C 5.21875 -1.171875 5.066406 -0.78125 4.765625 -0.46875 C 4.460938 -0.15625 4.078125 0 3.609375 0 C 3.148438 0 2.769531 -0.15625 2.46875 -0.46875 C 2.164062 -0.78125 2.015625 -1.171875 2.015625 -1.640625 L 2.015625 -18.1875 C 2.015625 -18.644531 2.164062 -19.03125 2.46875 -19.34375 C 2.769531 -19.65625 3.148438 -19.8125 3.609375 -19.8125 C 4.078125 -19.8125 4.460938 -19.65625 4.765625 -19.34375 C 5.066406 -19.03125 5.21875 -18.644531 5.21875 -18.1875 L 5.21875 -8.28125 L 10.953125 -13.8125 C 11.296875 -14.15625 11.6875 -14.328125 12.125 -14.328125 C 12.519531 -14.328125 12.875 -14.160156 13.1875 -13.828125 C 13.5 -13.503906 13.65625 -13.171875 13.65625 -12.828125 C 13.65625 -12.398438 13.441406 -12 13.015625 -11.625 L 8.96875 -7.90625 Z M 13.65625 -2.8125 "/></g></g></g><g fill="#ffffff" fill-opacity="1"><g transform="translate(238.19335, 47.378474)"><g><path d="M 13.34375 -14.59375 C 13.800781 -14.59375 14.179688 -14.441406 14.484375 -14.140625 C 14.785156 -13.835938 14.9375 -13.445312 14.9375 -12.96875 L 14.9375 -1.640625 C 14.9375 -1.171875 14.785156 -0.78125 14.484375 -0.46875 C 14.179688 -0.15625 13.800781 0 13.34375 0 C 12.875 0 12.488281 -0.148438 12.1875 -0.453125 C 11.894531 -0.753906 11.742188 -1.140625 11.734375 -1.609375 C 11.285156 -1.085938 10.679688 -0.644531 9.921875 -0.28125 C 9.160156 0.0820312 8.363281 0.265625 7.53125 0.265625 C 6.289062 0.265625 5.171875 -0.0507812 4.171875 -0.6875 C 3.171875 -1.320312 2.378906 -2.203125 1.796875 -3.328125 C 1.222656 -4.453125 0.9375 -5.726562 0.9375 -7.15625 C 0.9375 -8.582031 1.222656 -9.859375 1.796875 -10.984375 C 2.367188 -12.117188 3.148438 -13.003906 4.140625 -13.640625 C 5.128906 -14.273438 6.222656 -14.59375 7.421875 -14.59375 C 8.273438 -14.59375 9.078125 -14.4375 9.828125 -14.125 C 10.578125 -13.8125 11.210938 -13.414062 11.734375 -12.9375 L 11.734375 -12.96875 C 11.734375 -13.425781 11.882812 -13.8125 12.1875 -14.125 C 12.488281 -14.4375 12.875 -14.59375 13.34375 -14.59375 Z M 7.921875 -2.671875 C 9.085938 -2.671875 10.035156 -3.09375 10.765625 -3.9375 C 11.492188 -4.789062 11.859375 -5.863281 11.859375 -7.15625 C 11.859375 -8.4375 11.492188 -9.503906 10.765625 -10.359375 C 10.035156 -11.222656 9.085938 -11.65625 7.921875 -11.65625 C 6.785156 -11.65625 5.847656 -11.222656 5.109375 -10.359375 C 4.378906 -9.503906 4.015625 -8.4375 4.015625 -7.15625 C 4.015625 -5.863281 4.375 -4.789062 5.09375 -3.9375 C 5.820312 -3.09375 6.765625 -2.671875 7.921875 -2.671875 Z M 7.921875 -2.671875 "/></g></g></g><g fill="#ffffff" fill-opacity="1"><g transform="translate(255.649626, 47.378474)"><g><path d="M 0.90625 -2.21875 C 0.75 -2.4375 0.671875 -2.707031 0.671875 -3.03125 C 0.671875 -3.488281 0.898438 -3.878906 1.359375 -4.203125 C 1.609375 -4.367188 1.867188 -4.453125 2.140625 -4.453125 C 2.515625 -4.453125 2.875 -4.28125 3.21875 -3.9375 C 3.75 -3.382812 4.304688 -2.972656 4.890625 -2.703125 C 5.472656 -2.429688 6.171875 -2.296875 6.984375 -2.296875 C 8.378906 -2.359375 9.078125 -2.890625 9.078125 -3.890625 C 9.078125 -4.398438 8.835938 -4.789062 8.359375 -5.0625 C 7.890625 -5.332031 7.15625 -5.597656 6.15625 -5.859375 C 5.125 -6.148438 4.28125 -6.4375 3.625 -6.71875 C 2.976562 -7.007812 2.414062 -7.441406 1.9375 -8.015625 C 1.46875 -8.597656 1.234375 -9.378906 1.234375 -10.359375 C 1.234375 -11.222656 1.476562 -11.96875 1.96875 -12.59375 C 2.457031 -13.226562 3.097656 -13.71875 3.890625 -14.0625 C 4.691406 -14.414062 5.535156 -14.59375 6.421875 -14.59375 C 7.335938 -14.59375 8.25 -14.421875 9.15625 -14.078125 C 10.070312 -13.742188 10.785156 -13.25 11.296875 -12.59375 C 11.535156 -12.300781 11.65625 -11.976562 11.65625 -11.625 C 11.65625 -11.207031 11.484375 -10.867188 11.140625 -10.609375 C 10.890625 -10.410156 10.601562 -10.3125 10.28125 -10.3125 C 9.882812 -10.3125 9.5625 -10.4375 9.3125 -10.6875 C 9 -11.082031 8.585938 -11.394531 8.078125 -11.625 C 7.566406 -11.851562 6.988281 -11.96875 6.34375 -11.96875 C 4.988281 -11.96875 4.3125 -11.476562 4.3125 -10.5 C 4.3125 -10.101562 4.4375 -9.785156 4.6875 -9.546875 C 4.9375 -9.304688 5.253906 -9.117188 5.640625 -8.984375 C 6.023438 -8.847656 6.5625 -8.679688 7.25 -8.484375 C 8.21875 -8.222656 9.019531 -7.945312 9.65625 -7.65625 C 10.300781 -7.375 10.847656 -6.9375 11.296875 -6.34375 C 11.742188 -5.757812 11.96875 -4.984375 11.96875 -4.015625 C 11.96875 -3.140625 11.707031 -2.375 11.1875 -1.71875 C 10.675781 -1.070312 10.015625 -0.578125 9.203125 -0.234375 C 8.390625 0.0976562 7.554688 0.265625 6.703125 0.265625 C 5.515625 0.265625 4.410156 0.0703125 3.390625 -0.3125 C 2.378906 -0.707031 1.550781 -1.34375 0.90625 -2.21875 Z M 0.90625 -2.21875 "/></g></g></g><g fill="#ffffff" fill-opacity="1"><g transform="translate(269.330923, 47.378474)"><g><path d="M 8.65625 -3.03125 C 8.90625 -3.03125 9.128906 -2.90625 9.328125 -2.65625 C 9.535156 -2.414062 9.640625 -2.101562 9.640625 -1.71875 C 9.640625 -1.226562 9.375 -0.816406 8.84375 -0.484375 C 8.320312 -0.160156 7.726562 0 7.0625 0 C 5.957031 0 5.023438 -0.234375 4.265625 -0.703125 C 3.515625 -1.179688 3.140625 -2.1875 3.140625 -3.71875 L 3.140625 -11.109375 L 1.90625 -11.109375 C 1.476562 -11.109375 1.117188 -11.25 0.828125 -11.53125 C 0.546875 -11.820312 0.40625 -12.179688 0.40625 -12.609375 C 0.40625 -13.023438 0.546875 -13.367188 0.828125 -13.640625 C 1.117188 -13.921875 1.476562 -14.0625 1.90625 -14.0625 L 3.140625 -14.0625 L 3.140625 -15.78125 C 3.140625 -16.238281 3.296875 -16.625 3.609375 -16.9375 C 3.921875 -17.25 4.304688 -17.40625 4.765625 -17.40625 C 5.210938 -17.40625 5.585938 -17.25 5.890625 -16.9375 C 6.191406 -16.625 6.34375 -16.238281 6.34375 -15.78125 L 6.34375 -14.0625 L 8.25 -14.0625 C 8.675781 -14.0625 9.03125 -13.914062 9.3125 -13.625 C 9.601562 -13.34375 9.75 -12.988281 9.75 -12.5625 C 9.75 -12.144531 9.601562 -11.796875 9.3125 -11.515625 C 9.03125 -11.242188 8.675781 -11.109375 8.25 -11.109375 L 6.34375 -11.109375 L 6.34375 -3.859375 C 6.34375 -3.484375 6.441406 -3.207031 6.640625 -3.03125 C 6.835938 -2.863281 7.101562 -2.78125 7.4375 -2.78125 C 7.582031 -2.78125 7.78125 -2.816406 8.03125 -2.890625 C 8.25 -2.984375 8.457031 -3.03125 8.65625 -3.03125 Z M 8.65625 -3.03125 "/></g></g></g><g fill="#ffffff" fill-opacity="1"><g transform="translate(281.057792, 47.378474)"><g><path d="M 9.40625 -14.59375 C 11.21875 -14.59375 12.472656 -14.050781 13.171875 -12.96875 C 13.867188 -11.894531 14.21875 -10.398438 14.21875 -8.484375 L 14.21875 -1.640625 C 14.21875 -1.171875 14.066406 -0.78125 13.765625 -0.46875 C 13.460938 -0.15625 13.078125 0 12.609375 0 C 12.148438 0 11.765625 -0.15625 11.453125 -0.46875 C 11.148438 -0.78125 11 -1.171875 11 -1.640625 L 11 -8.484375 C 11 -9.472656 10.796875 -10.25 10.390625 -10.8125 C 9.984375 -11.375 9.28125 -11.65625 8.28125 -11.65625 C 7.238281 -11.65625 6.421875 -11.351562 5.828125 -10.75 C 5.242188 -10.15625 4.953125 -9.398438 4.953125 -8.484375 L 4.953125 -1.640625 C 4.953125 -1.171875 4.800781 -0.78125 4.5 -0.46875 C 4.195312 -0.15625 3.8125 0 3.34375 0 C 2.882812 0 2.5 -0.15625 2.1875 -0.46875 C 1.882812 -0.78125 1.734375 -1.171875 1.734375 -1.640625 L 1.734375 -12.6875 C 1.734375 -13.15625 1.882812 -13.546875 2.1875 -13.859375 C 2.5 -14.171875 2.882812 -14.328125 3.34375 -14.328125 C 3.8125 -14.328125 4.195312 -14.171875 4.5 -13.859375 C 4.800781 -13.546875 4.953125 -13.15625 4.953125 -12.6875 L 4.953125 -12.234375 C 5.429688 -12.878906 6.054688 -13.429688 6.828125 -13.890625 C 7.609375 -14.359375 8.46875 -14.59375 9.40625 -14.59375 Z M 9.40625 -14.59375 "/></g></g></g><g fill="#ffffff" fill-opacity="1"><g transform="translate(297.791209, 47.378474)"><g><path d="M 14.59375 -7.5 C 14.570312 -7.070312 14.398438 -6.722656 14.078125 -6.453125 C 13.765625 -6.179688 13.394531 -6.046875 12.96875 -6.046875 L 4.125 -6.046875 C 4.34375 -4.992188 4.832031 -4.164062 5.59375 -3.5625 C 6.363281 -2.96875 7.226562 -2.671875 8.1875 -2.671875 C 8.925781 -2.671875 9.5 -2.738281 9.90625 -2.875 C 10.320312 -3.007812 10.648438 -3.148438 10.890625 -3.296875 C 11.128906 -3.453125 11.289062 -3.554688 11.375 -3.609375 C 11.695312 -3.773438 12.003906 -3.859375 12.296875 -3.859375 C 12.671875 -3.859375 12.988281 -3.722656 13.25 -3.453125 C 13.519531 -3.179688 13.65625 -2.867188 13.65625 -2.515625 C 13.65625 -2.035156 13.40625 -1.597656 12.90625 -1.203125 C 12.40625 -0.796875 11.734375 -0.445312 10.890625 -0.15625 C 10.054688 0.125 9.210938 0.265625 8.359375 0.265625 C 6.859375 0.265625 5.550781 -0.046875 4.4375 -0.671875 C 3.320312 -1.296875 2.457031 -2.15625 1.84375 -3.25 C 1.238281 -4.351562 0.9375 -5.59375 0.9375 -6.96875 C 0.9375 -8.5 1.253906 -9.84375 1.890625 -11 C 2.535156 -12.164062 3.382812 -13.054688 4.4375 -13.671875 C 5.5 -14.285156 6.625 -14.59375 7.8125 -14.59375 C 9 -14.59375 10.113281 -14.269531 11.15625 -13.625 C 12.195312 -12.988281 13.03125 -12.125 13.65625 -11.03125 C 14.28125 -9.945312 14.59375 -8.769531 14.59375 -7.5 Z M 7.8125 -11.65625 C 5.75 -11.65625 4.53125 -10.679688 4.15625 -8.734375 L 11.171875 -8.734375 L 11.171875 -8.921875 C 11.097656 -9.671875 10.726562 -10.3125 10.0625 -10.84375 C 9.40625 -11.382812 8.65625 -11.65625 7.8125 -11.65625 Z M 7.8125 -11.65625 "/></g></g></g><g fill="#ffffff" fill-opacity="1"><g transform="translate(314.096259, 47.378474)"><g><path d="M 9.1875 -14.59375 C 9.71875 -14.59375 10.164062 -14.441406 10.53125 -14.140625 C 10.90625 -13.835938 11.09375 -13.476562 11.09375 -13.0625 C 11.09375 -12.507812 10.945312 -12.09375 10.65625 -11.8125 C 10.375 -11.539062 10.035156 -11.40625 9.640625 -11.40625 C 9.367188 -11.40625 9.066406 -11.46875 8.734375 -11.59375 C 8.679688 -11.613281 8.5625 -11.648438 8.375 -11.703125 C 8.1875 -11.753906 7.984375 -11.78125 7.765625 -11.78125 C 7.296875 -11.78125 6.847656 -11.632812 6.421875 -11.34375 C 5.992188 -11.0625 5.640625 -10.628906 5.359375 -10.046875 C 5.085938 -9.472656 4.953125 -8.785156 4.953125 -7.984375 L 4.953125 -1.640625 C 4.953125 -1.171875 4.800781 -0.78125 4.5 -0.46875 C 4.195312 -0.15625 3.8125 0 3.34375 0 C 2.882812 0 2.5 -0.15625 2.1875 -0.46875 C 1.882812 -0.78125 1.734375 -1.171875 1.734375 -1.640625 L 1.734375 -12.6875 C 1.734375 -13.15625 1.882812 -13.546875 2.1875 -13.859375 C 2.5 -14.171875 2.882812 -14.328125 3.34375 -14.328125 C 3.8125 -14.328125 4.195312 -14.171875 4.5 -13.859375 C 4.800781 -13.546875 4.953125 -13.15625 4.953125 -12.6875 L 4.953125 -12.34375 C 5.367188 -13.070312 5.957031 -13.628906 6.71875 -14.015625 C 7.488281 -14.398438 8.3125 -14.59375 9.1875 -14.59375 Z M 9.1875 -14.59375 "/></g></g></g><g clip-path="url(#id1)"><path fill="#ffffff" d="M 96.632812 66.507812 L 26.605469 66.507812 C 22.445312 66.507812 18.992188 63.484375 18.308594 59.519531 L 104.921875 59.519531 C 104.257812 63.484375 100.792969 66.507812 96.632812 66.507812 Z M 23.621094 10.207031 C 23.621094 9.199219 24.40625 8.402344 25.417969 8.402344 L 97.808594 8.402344 C 98.816406 8.402344 99.613281 9.199219 99.613281 10.207031 L 99.613281 56.703125 L 23.621094 56.703125 Z M 106.441406 56.71875 L 102.425781 56.71875 L 102.425781 10.207031 C 102.425781 7.675781 100.367188 5.609375 97.816406 5.609375 L 25.417969 5.609375 C 22.882812 5.609375 20.8125 7.675781 20.8125 10.207031 L 20.8125 56.703125 L 16.800781 56.703125 C 16.019531 56.71875 15.394531 57.339844 15.394531 58.117188 C 15.394531 64.285156 20.425781 69.308594 26.605469 69.308594 L 96.632812 69.308594 C 102.8125 69.308594 107.84375 64.285156 107.84375 58.117188 C 107.84375 57.339844 107.230469 56.71875 106.441406 56.71875 " fill-opacity="1" fill-rule="nonzero"/></g><path fill="#ffffff" d="M 91.578125 50.476562 L 31.664062 50.476562 L 31.664062 14.71875 L 91.570312 14.71875 L 91.570312 50.476562 Z M 92.980469 11.925781 L 30.257812 11.925781 C 29.480469 11.925781 28.855469 12.550781 28.855469 13.328125 L 28.855469 51.875 C 28.855469 52.65625 29.480469 53.277344 30.257812 53.277344 L 92.964844 53.277344 C 93.746094 53.277344 94.367188 52.65625 94.367188 51.875 L 94.367188 13.328125 C 94.382812 12.550781 93.746094 11.925781 92.980469 11.925781 " fill-opacity="1" fill-rule="nonzero"/><path fill="#ffffff" d="M 57.671875 43.703125 C 57.835938 43.757812 57.984375 43.785156 58.140625 43.785156 C 58.714844 43.785156 59.25 43.421875 59.453125 42.851562 L 66.339844 23.273438 C 66.601562 22.535156 66.207031 21.738281 65.496094 21.484375 C 64.753906 21.222656 63.960938 21.617188 63.695312 22.339844 L 56.8125 41.914062 C 56.566406 42.644531 56.957031 43.4375 57.671875 43.703125 Z M 79.5625 32.890625 L 70.1875 40.300781 C 69.582031 40.777344 69.476562 41.652344 69.960938 42.261719 C 70.230469 42.605469 70.648438 42.792969 71.050781 42.792969 C 71.355469 42.792969 71.65625 42.695312 71.921875 42.488281 L 82.671875 33.996094 C 83 33.742188 83.207031 33.332031 83.207031 32.914062 C 83.207031 32.496094 83.007812 32.09375 82.679688 31.824219 L 71.484375 22.707031 C 70.878906 22.222656 70 22.304688 69.523438 22.910156 C 69.03125 23.515625 69.121094 24.394531 69.722656 24.871094 Z M 51.320312 42.488281 C 51.582031 42.695312 51.886719 42.792969 52.191406 42.792969 C 52.609375 42.792969 53.011719 42.605469 53.28125 42.261719 C 53.765625 41.652344 53.660156 40.777344 53.050781 40.300781 L 43.679688 32.890625 L 53.519531 24.871094 C 54.117188 24.386719 54.207031 23.5 53.714844 22.910156 C 53.230469 22.304688 52.347656 22.222656 51.753906 22.707031 L 40.558594 31.824219 C 40.230469 32.09375 40.035156 32.480469 40.035156 32.914062 C 40.035156 33.332031 40.238281 33.742188 40.578125 33.996094 L 51.320312 42.488281 " fill-opacity="1" fill-rule="nonzero"/></svg>