<svg id="Flat" height="512" viewBox="0 0 128 128" width="512" xmlns="http://www.w3.org/2000/svg"><circle cx="64" cy="64" fill="#ffd0a1" r="61.217"/><path d="m12.64 30.7a60.476 60.476 0 0 1 7.76-9.67c3.02 1.7 17.88 2.99 27.82 1.36 4-.66 11.54-1.4 18.32-6.54 6.26-4.75 13.65-9.08 16.63-9.99a61.093 61.093 0 0 1 9.13 3.86 56.965 56.965 0 0 1 -34.69 24.48c-18.05 4.25-22.78-1.45-31.05-2.75-7.15-1.12-11.76.69-13.92-.75z" fill="#fff2d9"/><path d="m3.31 72.02a60.757 60.757 0 0 1 1.31-22.94c4.45 4.06 16.03-1.33 23.35-.07 14.93 2.58 26.84 4.39 36.22 1.41 13.3-4.23 19.77-14.16 28.02-16.83 9.67-3.14 16.23-5.04 17.51-10.31a60.9 60.9 0 0 1 9.51 14.3c-17.75 30.74-101.6 44.23-115.92 34.44z" fill="#ff7f52"/><path d="m124.46 73.68-.01.01c-4.33 5.33-6.61 5.23-11.61 9.79s-9.55 12.41-22.34 16.99c-11.05 3.95-18.43.43-32.25 1.21-16.57.94-28.39 4.96-41.34 1.45a61.028 61.028 0 0 1 -7.34-11.08c8.28 3.41 20.24 3.47 34.48 1.6a58.522 58.522 0 0 0 27.13-10.85c14.38-10.07 25.92-6.87 34.34-9.2 12.9-3.57 17.91-11.06 19.59-13.27a60.538 60.538 0 0 1 -.65 13.35z" fill="#ff7f52"/><path d="m4.62 49.08a61.425 61.425 0 0 1 8.02-18.38c2.16 1.44 6.77-.37 13.92.75 8.27 1.3 13 7 31.05 2.75a56.965 56.965 0 0 0 34.69-24.48 61.511 61.511 0 0 1 17.42 13.55v.01c-1.28 5.27-7.84 7.17-17.51 10.31-8.25 2.67-14.72 12.6-28.02 16.83-9.38 2.98-21.29 1.17-36.22-1.41-7.32-1.26-18.9 4.13-23.35.07z" fill="#f74b4b"/><path d="m124.45 73.69a61.172 61.172 0 0 1 -8.97 23.42.01.01 0 0 1 -.01.01c-19.27 14.06-51.49 25.86-78.09 22-.01-.01-.01-.01-.02-.01a61.231 61.231 0 0 1 -20.45-15.98c12.95 3.51 24.77-.51 41.34-1.45 13.82-.78 21.2 2.74 32.25-1.21 12.79-4.58 17.34-12.43 22.34-16.99s7.28-4.46 11.61-9.79z" fill="#f9e5c7"/><path d="m9.57 92.05a62.01 62.01 0 0 1 -4.7-12.21 59.77 59.77 0 0 1 -1.56-7.82c14.32 9.79 98.17-3.7 115.92-34.44a61.606 61.606 0 0 1 5.88 22.75c-1.68 2.21-6.69 9.7-19.59 13.27-8.42 2.33-19.96-.87-34.34 9.2a58.522 58.522 0 0 1 -27.13 10.85c-14.24 1.87-26.2 1.81-34.48-1.6z" fill="#f9e5c7"/><path d="m97.918 84.949c.916 3.419-3.669 8.44-9.852 10.1s-11.937.228-12.853-3.191 3.334-8.646 9.517-10.3c7.631-2.052 12.27-.028 13.188 3.391z" fill="#ffe2bb"/><ellipse cx="88.729" cy="88.035" fill="#ff6f48" rx="2.627" ry="1.704" transform="matrix(.943 -.332 .332 .943 -24.204 34.47)"/></svg>