<svg xmlns="http://www.w3.org/2000/svg" width="569.036" height="627.07" viewBox="0 0 569.036 627.07">
  <g id="shuttle" transform="matrix(0.259, -0.966, 0.966, 0.259, -23.812, 494.558)">
    <path id="Path_1" data-name="Path 1" d="M221.8,139.528a15.014,15.014,0,0,0-14.024-7.249L85.88,141.7a39.585,39.585,0,0,0-30.162,17.748L4.563,236.815a27.417,27.417,0,0,0,18.674,42.216l98.84,15.309a14.987,14.987,0,0,0,14.935-6.744l84.557-132.283A15,15,0,0,0,221.8,139.528Z" fill="#e45a6e"/>
    <path id="Path_2" data-name="Path 2" d="M372.475,290.2a15,15,0,0,0-15.785.23L224.408,374.992a15,15,0,0,0-6.745,14.935l15.308,98.84a27.4,27.4,0,0,0,42.217,18.675l77.373-51.156a39.573,39.573,0,0,0,17.747-30.162l9.416-121.894a15,15,0,0,0-7.249-14.025Z" fill="#d82e44"/>
    <path id="Path_3" data-name="Path 3" d="M192.87,412.278a26.166,26.166,0,0,0,22.78,7.37C337.762,399.23,434.391,298.126,471.178,227c40.849-78.974,42.362-162.43,40.227-201.57A26.292,26.292,0,0,0,486.57.6C447.43-1.536,363.975-.023,285,40.826,213.878,77.613,112.774,174.242,92.356,296.354a26.169,26.169,0,0,0,7.37,22.78Z" fill="#f1f1fb"/>
    <path id="Path_4" data-name="Path 4" d="M503.743,8.261,146.3,365.706l46.572,46.572a26.169,26.169,0,0,0,22.78,7.37C337.762,399.23,434.391,298.126,471.178,227,512.027,148.03,513.54,64.574,511.4,25.434a26.25,26.25,0,0,0-7.662-17.173Z" fill="#d7d6fb"/>
    <path id="Path_5" data-name="Path 5" d="M350.731,236.238a74.94,74.94,0,1,1,53.032-21.932A74.753,74.753,0,0,1,350.731,236.238ZM308.3,118.847h.01Z" fill="#466288"/>
    <path id="Path_6" data-name="Path 6" d="M92.356,296.354a26.169,26.169,0,0,0,7.37,22.78l93.144,93.144a26.169,26.169,0,0,0,22.78,7.37A299.84,299.84,0,0,0,291.387,396L116.008,220.618a299.834,299.834,0,0,0-23.652,75.736Z" fill="#466288"/>
    <path id="Path_7" data-name="Path 7" d="M15.3,421.938a14.952,14.952,0,0,0,10.606-4.394l48.973-48.973A15,15,0,0,0,53.67,347.358L4.7,396.331A15,15,0,0,0,15.3,421.938Z" fill="#fdb43a"/>
    <path id="Path_8" data-name="Path 8" d="M119.764,392.24a15,15,0,0,0-21.213,0L4.4,486.394A15,15,0,1,0,25.61,507.606l94.154-94.154a15,15,0,0,0,0-21.212Z" fill="#fdb43a"/>
    <path id="Path_9" data-name="Path 9" d="M164.645,437.121a15,15,0,0,0-21.213,0L94.46,486.093a15,15,0,1,0,21.212,21.213l48.973-48.973a15,15,0,0,0,0-21.212Z" fill="#f57a21"/>
    <path id="Path_10" data-name="Path 10" d="M4.4,507.607a15,15,0,0,0,21.213,0l94.154-94.154a15,15,0,0,0,0-21.213Z" fill="#f57a21"/>
    <path id="Path_11" data-name="Path 11" d="M146.3,365.706l46.572,46.572a26.169,26.169,0,0,0,22.78,7.37A299.841,299.841,0,0,0,291.387,396L203.7,308.307Z" fill="#354a67"/>
    <path id="Path_12" data-name="Path 12" d="M297.7,214.306A75,75,0,0,0,403.763,108.24Z" fill="#354a67"/>
    <path id="Path_13" data-name="Path 13" d="M350.73,116.295a44.962,44.962,0,1,0,31.821,13.158,44.857,44.857,0,0,0-31.821-13.158Z" fill="#4bbefd"/>
    <path id="Path_14" data-name="Path 14" d="M382.55,129.454l-63.639,63.639a45,45,0,0,0,63.639-63.639Z" fill="#0590fb"/>
  </g>
</svg>
