<svg xmlns="http://www.w3.org/2000/svg" xmlns:xlink="http://www.w3.org/1999/xlink" width="200" zoomAndPan="magnify" viewBox="0 0 150 131.249995" height="175" preserveAspectRatio="xMidYMid meet" version="1.0"><defs><clipPath id="id1"><path d="M 5 17.429688 L 145 17.429688 L 145 112.882812 L 5 112.882812 Z M 5 17.429688 " clip-rule="nonzero"/></clipPath></defs><g clip-path="url(#id1)"><path fill="#000000" d="M 127.253906 108.597656 L 22.546875 108.597656 C 16.324219 108.597656 11.160156 104.070312 10.140625 98.136719 L 139.648438 98.136719 C 138.652344 104.070312 133.472656 108.597656 127.253906 108.597656 Z M 18.082031 24.296875 C 18.082031 22.789062 19.257812 21.597656 20.769531 21.597656 L 129.007812 21.597656 C 130.515625 21.597656 131.707031 22.789062 131.707031 24.296875 L 131.707031 93.914062 L 18.082031 93.914062 Z M 141.917969 93.941406 L 135.917969 93.941406 L 135.917969 24.296875 C 135.917969 20.507812 132.835938 17.417969 129.019531 17.417969 L 20.769531 17.417969 C 16.976562 17.417969 13.882812 20.507812 13.882812 24.296875 L 13.882812 93.914062 L 7.882812 93.914062 C 6.714844 93.941406 5.785156 94.871094 5.785156 96.039062 C 5.785156 105.273438 13.304688 112.792969 22.546875 112.792969 L 127.253906 112.792969 C 136.492188 112.792969 144.015625 105.273438 144.015625 96.039062 C 144.015625 94.871094 143.09375 93.941406 141.917969 93.941406 " fill-opacity="1" fill-rule="nonzero"/></g><path fill="#000000" d="M 119.691406 84.59375 L 30.105469 84.59375 L 30.105469 31.054688 L 119.679688 31.054688 L 119.679688 84.59375 Z M 121.792969 26.871094 L 28.007812 26.871094 C 26.84375 26.871094 25.910156 27.804688 25.910156 28.96875 L 25.910156 86.691406 C 25.910156 87.855469 26.84375 88.789062 28.007812 88.789062 L 121.765625 88.789062 C 122.933594 88.789062 123.867188 87.855469 123.867188 86.691406 L 123.867188 28.96875 C 123.890625 27.804688 122.933594 26.871094 121.792969 26.871094 " fill-opacity="1" fill-rule="nonzero"/><path fill="#000000" d="M 68.996094 74.449219 C 69.242188 74.535156 69.464844 74.574219 69.695312 74.574219 C 70.554688 74.574219 71.351562 74.035156 71.660156 73.175781 L 81.957031 43.859375 C 82.347656 42.757812 81.761719 41.566406 80.691406 41.1875 C 79.585938 40.792969 78.398438 41.382812 78.003906 42.460938 L 67.707031 71.777344 C 67.339844 72.867188 67.929688 74.058594 68.996094 74.449219 Z M 101.726562 58.261719 L 87.710938 69.359375 C 86.804688 70.070312 86.644531 71.382812 87.367188 72.292969 C 87.773438 72.808594 88.398438 73.089844 89 73.089844 C 89.453125 73.089844 89.910156 72.941406 90.300781 72.636719 L 106.378906 59.917969 C 106.867188 59.535156 107.175781 58.921875 107.175781 58.296875 C 107.175781 57.671875 106.878906 57.070312 106.390625 56.664062 L 89.652344 43.015625 C 88.742188 42.289062 87.429688 42.414062 86.71875 43.320312 C 85.980469 44.230469 86.117188 45.542969 87.011719 46.253906 Z M 59.5 72.636719 C 59.890625 72.941406 60.34375 73.089844 60.800781 73.089844 C 61.425781 73.089844 62.027344 72.808594 62.429688 72.292969 C 63.15625 71.382812 62.996094 70.070312 62.085938 69.359375 L 48.074219 58.261719 L 62.789062 46.253906 C 63.683594 45.527344 63.816406 44.203125 63.082031 43.320312 C 62.359375 42.414062 61.03125 42.289062 60.148438 43.015625 L 43.410156 56.664062 C 42.917969 57.070312 42.625 57.648438 42.625 58.296875 C 42.625 58.921875 42.929688 59.535156 43.433594 59.917969 L 59.5 72.636719 " fill-opacity="1" fill-rule="nonzero"/></svg>