<svg xmlns="http://www.w3.org/2000/svg" xmlns:xlink="http://www.w3.org/1999/xlink" width="566.975" height="283.46" viewBox="0 0 566.975 283.46">
  <defs>
    <linearGradient id="linear-gradient" x1="0.5" y1="13.099" x2="0.5" y2="12.17" gradientUnits="objectBoundingBox">
      <stop offset="0.37" stop-color="#c9d1c9"/>
      <stop offset="1" stop-color="#3b6182"/>
    </linearGradient>
    <linearGradient id="linear-gradient-2" x1="0.5" y1="1" x2="0.5" y2="0.308" gradientUnits="objectBoundingBox">
      <stop offset="0" stop-color="#fff"/>
      <stop offset="0.084" stop-color="#f2f6f8"/>
      <stop offset="0.278" stop-color="#dae5eb"/>
      <stop offset="0.486" stop-color="#cadae2"/>
      <stop offset="0.714" stop-color="#c0d3dc"/>
      <stop offset="1" stop-color="#bdd1db"/>
    </linearGradient>
    <linearGradient id="linear-gradient-3" x1="0.5" y1="1" x2="0.5" gradientUnits="objectBoundingBox">
      <stop offset="0" stop-color="#fff"/>
      <stop offset="0.09" stop-color="#ddd"/>
      <stop offset="0.282" stop-color="#9b9b9b"/>
      <stop offset="0.465" stop-color="#636363"/>
      <stop offset="0.633" stop-color="#383838"/>
      <stop offset="0.784" stop-color="#191919"/>
      <stop offset="0.911" stop-color="#060606"/>
      <stop offset="1"/>
    </linearGradient>
    <linearGradient id="linear-gradient-4" x1="0.5" y1="1" x2="0.5" gradientUnits="objectBoundingBox">
      <stop offset="0" stop-color="#fff"/>
      <stop offset="0.068" stop-color="#e0e0e0"/>
      <stop offset="0.213" stop-color="#a6a6a6"/>
      <stop offset="0.358" stop-color="#737373"/>
      <stop offset="0.5" stop-color="#494949"/>
      <stop offset="0.637" stop-color="#292929"/>
      <stop offset="0.768" stop-color="#121212"/>
      <stop offset="0.892" stop-color="#040404"/>
      <stop offset="1"/>
    </linearGradient>
  </defs>
  <g id="Group_4" data-name="Group 4" transform="translate(0.045)">
    <rect id="Rectangle_1" data-name="Rectangle 1" width="566.929" height="283.46" transform="translate(0.001)" fill="url(#linear-gradient)"/>
    <g id="Group_1" data-name="Group 1">
      <path id="Path_1" data-name="Path 1" d="M566.885,74.371c-1.1.7-12.522-1.869-17.841-1.4s-5.88-1.4-7.28-1.4-6.72,4.207-11.76,4.44-5.039-1.636-7.84-2.571-4.2,1.4-7.84,3.506-9.239.935-15.4,3.74-7.56,9.972-12.04,10.44-7.28-.233-8.4,0-4.479,2.1-9.8,2.932a10.031,10.031,0,0,0-3.017,1.073c-4.416-.5-8.262-1.016-11.125-1.016-16.914,0-16.914,7.565-29.129,11.692-3.607,1.217-9.518-.879-16.623,2.757-2.547-.99-9.9-3.666-13.606-2.858s-15.755,12.094-21.318,7.72-12.974,3.512-16.683,3.512-7.416,3.616-14.831,2-12.046-1.04-18.537-1.848-10.449-2.133-17.861-2.856-12.342-.046-16.975,2.377-15.214-2.672-24.484.558-12.922-5.016-21.264-7.439-10.976-5.925-21.836-3.137c-2.314.6-16.8-3.912-18.408-4.565-12.15-4.936-18.976-.7-22.521-1.634s-4.559.935-12.155,0-14.181.314-17.726-.156-13.674,5.621-16.713,4.918-10.129-6.879-13.672-6.837a22.368,22.368,0,0,0-7.6,1.919s-20.943-4.578-28.4-5.291c-13.992-1.338-22.812,1.565-27.369.629s-20.8-6.1-27.381-5.592S.916,92.164-.045,93.145V201.108l566.93.561V166.843h0Z" fill="url(#linear-gradient-2)" style="mix-blend-mode: multiply;isolation: isolate"/>
      <path id="Path_2" data-name="Path 2" d="M566.885,108.795a16.88,16.88,0,0,1-5.6,2.326c-4,1.074-11.667-.716-23-4.653s-14.667-4.294-23.334-5.725-13.333,3.22-23.333,8.947c-12.839,7.35-34.6,15.342-45,17.893a91.776,91.776,0,0,0-15.952,6.041c-8.984-7.532-16.194-13.508-18.381-14.9-6.666-4.25-10.334-2.267-15-2.267s-12.334,8.5-17.667,10.768-7,1.133-11,4.532-41,20.4-46.667,23.518-8.333,3.118-13.333,5.384c-.821.372-2.165.961-3.828,1.684-6.611-.852-17.524-2.527-20.882-3.367-4.044-1.011-9.207-.451-13.207-2.6s-17.166-.709-20.416-1.245-9.709-2.425-15.334-1.288c-3.146.636-15.933-3.477-18.16-2.233-7.418-.251-16.216-2.967-21.84-3.8-6-.9-19.5-6.442-23-7.874s-9.334-3.935-14.166-4.766-18.168-6.329-21.168-7.94-7.332-5.546-8.832-5.368a15.414,15.414,0,0,1-5.334-.536c-2.5-.536-2-1.968-3.334-1.252s-1.832,1.61-5,.537-13.832-10.2-16.166-10.915-8.334,1.789-11,3.623-17.443,10.512-17.443,10.512h0a37.943,37.943,0,0,0-4.557-2.327c-4.666-1.789-10-8.946-17.334-13.241s-9.666-1.431-13-4.887-11-11.217-17.332-12.1S-.045,79.628-.045,79.628V179.843h566.93Z" fill="#4a637c"/>
      <rect id="Rectangle_2" data-name="Rectangle 2" width="566.93" height="115.27" transform="translate(0 145.611)" fill="url(#linear-gradient-3)" style="mix-blend-mode: screen;isolation: isolate"/>
      <path id="Path_3" data-name="Path 3" d="M-.044,145.661c.961-.98,22.916-2.651,29.5-3.165s15.693,4.65,20.25,5.589,20.508-6.963,34.5-5.625c7.455.713,28.4,5.291,28.4,5.291a22.368,22.368,0,0,1,7.6-1.919c3.544-.043,10.634,6.135,13.673,6.837s13.168,4.615,16.712,5.082,10.129,4.216,17.726,5.155,8.609-.939,12.155,0,10.371-3.3,22.521,1.635c1.606.652,16.094,5.159,18.409,4.564,10.859-2.788,13.494-9.286,21.836-6.863s11.994,10.671,21.264,7.44,19.85,1.866,24.483-.558,9.56-3.1,16.975-2.378,11.374,2.05,17.861,2.857,11.124.233,18.538,1.847,11.123-2,14.831-2,11.123-7.885,16.683-3.511,17.609,2.089,21.318,1.28,11.059,1.868,13.6,2.858c7.106-3.637,13.017-10.54,16.623-11.758,12.216-4.127,12.216-11.691,29.129-11.691,8.462,0,25.37,4.47,40.874,0,13.68-3.945,71.467,6.578,71.467,6.578v72.979l-566.929-.56Z" fill="#293e60"/>
      <rect id="Rectangle_3" data-name="Rectangle 3" width="566.93" height="98.27" transform="translate(-0.045 185.19)" fill="url(#linear-gradient-4)" style="mix-blend-mode: screen;isolation: isolate"/>
    </g>
    <path id="Path_4" data-name="Path 4" d="M.175,110.611c.038.078.078.155.117.232.663,1.305,1.417,2.7.341,2.89-.1.018-.512.038-.633.06V283.46H566.93V140.625c-.119-.016-.517-.034-.619-.048-1.053-.141-.315-1.21.334-2.206.038-.058.077-.118.114-.177.3-.474.163-.668-.114-.8-.332-.164-.857-.245-1.085-.61-.417-.67-1.034-1.043-.251-1.787s-.448-.67-1.006-1.192a2.15,2.15,0,0,1-.557-1.413c-2.677.148-2.231,1.787-2.9,3.2s.78,1.191.111,2.234-3.348-.148-2.565,1.34,2.231.67.78,2.308-7.253.3-6.806.969,4.129.52,4.573,1.488.114,1.638-1.337,2.755-2.678.3-3.124,1.265,1.116,1.937.334,1.937-2.006-.372-1.9.6,1.34,1.265,1.562,2.532-1.116.074-2.789,1.043,4.127,2.158,2.789,3.2-5.13-1.488-5.02-.149,3.458,2.756,1.228,2.756-2.567,0-1.228,1.488c.959,1.067,2.715,1.714,3.39,2.324a16.043,16.043,0,0,1-1.492,1.351c-1.351.24-2.973.375-2.9,1.091a1.081,1.081,0,0,0,.322.631,9.744,9.744,0,0,1-4.351,1.381c-2.933,0-2.753,1.135.494-2.924s5.244-11.964,4-10.682a6.335,6.335,0,0,1-4.473,1.495c-1.224,0-5.017-.854-3.019-3.418s3.995-10.681,2.5-10.04-1.748,2.349-5.245,1.709.25-4.913,1.249-7.68.25-3.643-2-1.079-3.246,0-4-1.923.75-4.7,0-7.9a12.478,12.478,0,0,0-1.748-4.488c-2.5-.214-3,1.5-3.061,4.273s-2.684,9.4-3.683,7.691-2-3.845-2.5.213,3.247,6.623,1,5.555-1.5-3.846-3.5-1.282.249,2.991,2.5,5.555.25,4.485-1.249,4.272-3.746-1.709-5.744-3.845-2.247-1.495-2.247,1.281,4.995,4.7,6.992,7.264-2.747,2.991-4.245,2.35-2.248,1.069-1,4.059-1.748,3.631-3.746,3.631-1.748-4.912-3.746-2.35-1.243,7.127,1.5,11.828,4.086,6.064,2.338,6.492a4.67,4.67,0,0,1-3.347-.921c.477-.971.872-2.129-.447-1.547-.363.16-.757.308-1.158.442q-1.239-.927-2.74-2.262c.1-.087.189-.176.287-.258,1.229-1.039,2-3.428.384-2.909a8.019,8.019,0,0,0-2.38,1.774c-.694-.437-1.188-.506-1.506-.293-.107-.723.66-1.894,1.122-2.833.613-1.247,1.92-2.546.537-2.183s-1.23-.57-2.2-.656c0,0,.1-4.5-.72-4.919s-.2,3.81-.613,4.572-2.151-.069-2.868-.069,2.258,2.354,2.1,2.979-4.149.553-4.559-.625-.921.97.614,2.287,2.561,4.848,1.947,4.987-5.12-2.216-5.941-3.6.821,5.888,3.074,6.928,0,1.038-2.356,1.869-1.843,2.079-.309,2.772a17.642,17.642,0,0,1,2.676,1.574c-.058,0-.114-.011-.174-.006-1.169.1-1.345.628-.928,1.615a20.393,20.393,0,0,1-5.669-1.936c-.88-.637-.641,0-.159.912-.852-.134-2.007-.158-1.64-.629.515-.66,1.457-1.54.6-1.76s-3,0-3.188-1.028.787-1.1,2.5-1.392,3.175-1.982,3.145-2.572-1.514-.22-3.145.148a10.293,10.293,0,0,1-5.66-.44c-1.2-.66.6-.955,2.4-1.028s1.8-1.321,3-2.053,4.889-2.275,2.746-2.2-4.118-.881-4.89-.809-.686-1.392-.342-1.906,1.629-1.176.6-1.687-3.517.441-3.088-.954,2.909-3.1,1.415-3.082c-1.924.02-5.1-1.1-5.253-1.907s1.78-1.027,2.123-1.76-1.458-1.028-2.316-1.175-.171-1.32.343-2.347-.6-.734-.921-1.4-.794-1.027-.194-1.76-.2-.773-.772-1.175c-3.173-2.244-1.681-2.553-1.778-3.57s-2.242-4.625-4.234.783c-.746,2.026-2.231.592-3.26,3.8-.346,1.078-2.049,1.042-1.448,2.509s.685.661-.429,2.274-4.546.295-4.2.955,2.144,1.392,2.486,2.346.086,1.615-1.029,2.715-2.059.293-2.4,1.247.856,1.909.256,1.909-1.543-.368-1.459.586,1.03,1.247,1.2,2.494-2.916,1.834-4.2,2.789,3.173,2.127,2.144,3.153-3.945-1.467-3.86-.146,2.658,2.716.944,2.716-1.974,0-.944,1.468,2.23,2.128,1.716,3.009-4.631.586-4.546,1.688c.038.487.564.816,1.176,1.139-.013.2-.022.426-.022.694,0,.586.466,1.112,1.135,1.612a12.1,12.1,0,0,0-3.747.883c-1.973,1.1-2.144,1.466-1.116,1.907s2.059,0,4.118.073c1.665.06,2.081.42,1.731,1.481-.969-.283-1.508.425-1.065,1.75-.768.49-1.763,0-3.24,0-1.363,0-1.374.7-1.081,1.448-.3-.386-.649-.525-1.307.134-1.168,1.169-1.145,3.011-.187,5.063-.505.087-1.041.168-1.627.251-2.573.367-3.345-1.026-4.2.073s.944,1.615,2.488,2.5c1.334.761,3.626-.228,5-.18.224.293.432.563.627.812a30.7,30.7,0,0,1-2.711,1.495c-.077.046-.154.088-.232.129-.808-.47-1.706-1.055-2.731-1.782-3.181-2.255-2.782.928-1.392,3.183.717,1.162,1.483,2.148,2.033,3.139-.645.084-.8.319-1.279.98-.687.954,0,1.394,1.543,2.5.135.1.24.182.334.264-.424,1.184-1.613.4-3.823.285a3.919,3.919,0,0,1-2.208-.893,2.665,2.665,0,0,0,.688-.107c.784-.263.653-.481-.851-1.135a5.3,5.3,0,0,0-1.321-.341,5.8,5.8,0,0,0-.738-2.63c-.361-.616-.431-1.23-1.31-1.713a3.875,3.875,0,0,0,.888-.679c.784-.871.587-.871-.72-.871s.656-.829.72-1.614-2.156.7-2.939.087,2.612-1.306,1.632-1.874-1.763.131-1.632-.611.849-.915.915-1.481-.655-.35-1.113-.35.458-.567.2-1.133-.98-.088-1.83-.741c-.076-.058-.14-.113-.206-.166a1.831,1.831,0,0,1,1.151.179,7.712,7.712,0,0,0,4.246.642c1.665-.143,1.331-1.068,0-1.353s-1.5-2.207-2.165-3.134a4.025,4.025,0,0,0-2.248-1.778c-.605-.223-2.306-.445-3.792-.727a1.217,1.217,0,0,0-.057-.161c-.193-.408-.228-.85-.4-1.2a11.131,11.131,0,0,0,2.586-.048c1.831-.356,3.081-1.71,2.664-2.137s-2.83-.214-2.33-.854,1.414-1.495.582-1.709-2.914,0-3.1-1,.764-1.068,2.429-1.353,3.08-1.923,3.05-2.492-1.468-.214-3.05.142a10.029,10.029,0,0,1-5.495-.427c-1.165-.641.584-.925,2.332-1s1.748-1.282,2.913-1.994,4.745-2.208,2.664-2.136-4-.854-4.745-.783-.666-1.354-.332-1.851,1.581-1.141.582-1.639-3.414.428-3-.926,2.5-3.773,1.374-2.99-1.956-.214-2.1-1,1.728-1,2.061-1.71-1.415-1-2.247-1.139-.166-1.282.333-2.279-.583-.711-.895-1.352-.77-1-.188-1.709-.332-.641-.749-1.14a2.439,2.439,0,0,1-.416-1.353c-2,.142-1.666,1.711-2.166,3.062s.583,1.14.084,2.137-2.5-.143-1.914,1.282,1.664.642.582,2.207-5.412.285-5.078.927,3.08.5,3.412,1.424.084,1.566-1,2.634-2,.285-2.331,1.21.833,1.852.25,1.852-1.5-.357-1.415.57,1,1.21,1.165,2.421-.832.07-2.081,1,3.08,2.065,2.081,3.063-3.829-1.426-3.746-.144,2.581,2.636.916,2.636-1.915,0-.916,1.423,3.164,2.066,2.665,2.921-3.5.569-3.414,1.637,1.581,1.353,2,2.565-2.5.568-4.412,1.637c-.162.09-.295.168-.432.25a5.372,5.372,0,0,0-.623-.292c-2.211-1.219-1.171-1.388-1.238-1.941s-1.56-2.512-2.949.427c-.519,1.1-1.553.319-2.27,2.063-.24.584-1.425.567-1.005,1.363s.475.358-.3,1.236c-.648.73-2.408.355-2.841.417.107-.759-.881-.815-1.1-1.5-.732-2.283-1.789-1.263-2.32-2.7-1.418-3.848-2.943,1.718-3.014,2.443s.995.945-1.264,2.541c-.406.285-.975.314-.55.835s.09.782-.137,1.253-1.023.262-.656.993.855,1.565.244,1.67-1.891.312-1.647.836,1.618.678,1.51,1.253-2.369,1.369-3.738,1.357c-1.062-.01.7,1.2,1.007,2.192s-1.466.313-2.2.678a.685.685,0,0,0-.193.135,7.828,7.828,0,0,1-1.084-.357c-.023-.1-.165-.174-.446-.234a.516.516,0,0,1-.221-.235c-.118-.492,1.392-.627,1.66-1.073s-1.138-.627-1.81-.717-.134-.8.269-1.429-.468-.449-.722-.851-.619-.625-.151-1.073-.158-.471-.6-.717c-2.481-1.368-1.313-1.557-1.389-2.177s-1.752-2.82-3.308.478a1.433,1.433,0,0,1-.911.783c-.037-.262-.232-.356-.72-.1-1.436.746-3.434,1.294-4.12.846s.186-1.842,1.186-2.837,1.623-3.285.313-2.788-1.936,2.39-2.811,1.941.063-2.041.563-3.236,1.56-2.437.436-2.09-1-.547-1.79-.63c0,0,.082-4.315-.583-4.713s-.167,3.651-.5,4.381-1.749-.066-2.332-.066,1.836,2.256,1.709,2.853-3.373.531-3.706-.6-.749.929.5,2.189,2.081,4.647,1.582,4.78-4.162-2.124-4.828-3.451.666,5.641,2.5,6.637,0,.994-1.915,1.792-1.5,1.99-.25,2.654,3.769,2.589,3.384,3.186-5.548.006-6.713-.99.084.26.666,1.588,3,3.185,3.329,4.845-2.746,1.194-3.5,1.657,0,1.2.916,1.728c.869.505,2.408,2.678,1.281,3.182-1.58-.506-3.648-.2-3.326-.934.35-.792,1.6-.977,1.673-1.675s-2.44-.512-2.859-1.07,1.4-.977,2.231-1.907.627-.93-.768-.93.7-.885.768-1.721-2.3.744-3.135.093,2.787-.395,1.741-1-1.882.139-1.741-.651.906-.977.975-1.581-.7-.373-1.186-.373.489-.6.211-1.209-1.045-.093-1.951-.79-1.115-1.119-.838-1.722,2.578-.512,2.856-.93-3.344.418-4.251-.6,0-.513.49-1.443-1.187-.186-1.6-.838.489-.511.07-1.4-.139-1.907-1.813-2a1.348,1.348,0,0,1-.348.884c-.349.326-1.114.279-.627.744s.1.7-.157,1.117-1.169.232-.749.885.976,1.4.279,1.487-2.161.281-1.882.745,1.847.6,1.724,1.116a.987.987,0,0,1-.1.244c-1.666.1-3.224-.421-3.823-.328-.63.1-.665-.989-.416-1.387s1.259-.961.374-1.281-2.869.529-2.614-.525,1.848-3.018.949-2.353a1.171,1.171,0,0,1-1.859-.635c-.181-.588,1.4-.863,1.628-1.422s-1.273-.676-1.993-.733-.235-.966.116-1.754-.546-.506-.858-.976-.727-.711-.282-1.288-.33-.467-.72-.821a1.757,1.757,0,0,1-.451-1.005c-1.688.227-1.292,4.4-1.618,5.457s.579.833.227,1.62-2.133.04-1.533,1.09,1.461.389.656,1.644-4.578.539-4.247,1.006,2.651.2,3,.879.184,1.186-.656,2.065-1.678.335-1.895,1.057.844,1.36.35,1.394-1.3-.182-1.162.518.937.86,1.166,1.771-.7.1-1.7.883,2.768,1.386,1.99,2.2-3.355-1.856-3.192-.886c.16.951,2.3,1.817,1.035,1.942-.014-.244-.2-.344-.71-.127-1.4.6-3.36,1.032-4.032.674s.184-1.468,1.161-2.263,1.588-1.621.3-1.223-1.893,1.9-2.748,1.549.06-1.629.549-2.582,1.527-1.947.427-1.668-.976-.436-1.752-.5c0,0,.08-3.441-.571-3.76s-.162,2.913-.487,3.494-1.711-.05-2.279-.05,1.792,1.8,1.668,2.275-3.3-.577-3.625-1.478-.733.742.49,1.748,2.035,3.707,1.547,3.813a3.13,3.13,0,0,1-1.173-.374c-.048-.154-.131-.228-.267-.17-.017.007-.029.018-.045.024a10.931,10.931,0,0,1-3.121-2.077,12.042,12.042,0,0,0,.76-1.541c.6-1.664.15-2.191-1.2-.649s-1.955,0-2.406-1.157.451-2.829,0-4.757a7.521,7.521,0,0,0-1.051-2.7c-1.5-.128-1.8.9-1.843,2.572s-1.615,5.657-2.216,4.629-1.2-2.315-1.5.127,1.953,3.986.6,3.343-.9-2.313-2.1-.77.151,1.8,1.5,3.343.151,2.7-.752,2.571a4.943,4.943,0,0,1-2.051-1.036c.543-.42,2.47-.384,2.725-.739s-2.736.257-3.95-.357c-.061-.061-.121-.119-.182-.182a6.053,6.053,0,0,0-.452-.444c-.2-.383.435-.233.822-.921.489-.866-1.185-.174-1.6-.779s.488-.476.07-1.3-.139-1.773-1.813-1.86a1.2,1.2,0,0,1-.347.822c-.35.3-1.115.259-.629.691s.1.649-.156,1.038-1.168.217-.748.823.975,1.3.279,1.383-2.162.26-1.883.694,1.848.56,1.726,1.037a1.187,1.187,0,0,1-1.76.6c-.86-.435.517.754,1.027,1.59a5.745,5.745,0,0,0-1.4-.26c-.642.055-.571-1.077-.285-1.473s1.352-.907.5-1.3-2.921.341-2.564-.735,2.136-3,1.175-2.381a1.144,1.144,0,0,1-1.8-.792c-.125-.624,1.479-.795,1.764-1.359s-1.21-.794-1.924-.908-.142-1.02.285-1.813-.5-.568-.765-1.077-.659-.794-.16-1.36-.285-.509-.642-.907a1.834,1.834,0,0,1-.355-1.076c-1.711.113-1.426,1.361-1.854,2.437s.5.906.072,1.7-2.137-.114-1.638,1.019,1.423.511.5,1.757-4.632.228-4.345.738,2.634.4,2.919,1.131.072,1.246-.855,2.1a2.856,2.856,0,0,1-1.623.6c0-.075-.006-.147-.017-.223-.295-1.864-.884-.884-1.472-.1s-2.131-2.258-2.168-3.533-.332-2.062-1.8-1.964a5.192,5.192,0,0,0-1.028,2.062c-.44,1.472.441,2.748,0,3.631s-1.029,2.062-2.353.883c-1.138-1.013-1.618-.851-1.359.02a3.64,3.64,0,0,0-.449-.243c-1.914-.832-3.746-.832-1.916-1.872s3.165-8.325,2.5-6.937-4.327,3.747-4.827,3.607.332-3.676,1.581-4.995.833-3.467.5-2.29-3.578,1.251-3.705.626,2.291-2.982,1.707-2.982-2,.832-2.329.067.166-4.993-.5-4.577-.583,4.925-.583,4.925c-.792.088-.667,1.024-1.791.658s-.063.939.436,2.188,1.437,2.912.563,3.38-1.5-1.509-2.81-2.029-.687,1.872.312,2.912,1.873,2.5,1.186,2.968-2.684-.1-4.121-.886-.374,1.561,0,2.393,3.871,3.174,2.81,3.539a7.109,7.109,0,0,1-2,.174.289.289,0,0,0-.147-.166c-.973-.6-1.883.021-1.659-.675s1.006-.818,1.142-1.352-.653-.368-1.138-.4.551-.511.341-1.064-1.028-.137-1.852-.807-.985-1.053-.642-1.575,2.615-.315,2.938-.671-3.367.19-4.156-.769.055-.455.642-1.255-1.155-.231-1.5-.832.541-.428.222-1.236.07-1.7-1.582-1.876a1.215,1.215,0,0,1-.442.768c-.382.27-1.137.187-.705.626s.028.626-.276.984-1.187.142-.84.745.818,1.293.116,1.338-2.178.131-1.951.559,1.77.637,1.592,1.085a1.257,1.257,0,0,1-1.819.486c-.879-.508.678.992.928,1.8s-1.691.157-2.556.4.124.673.365.977a.822.822,0,0,1,.011.894c-.278.041-.6.1-.946.181-.8.077-2.111-2.669-3.472-2.777a2.423,2.423,0,0,0-.353-.006,4.759,4.759,0,0,1-1.547-.433c-1-.548.5-.792,2-.853s1.495,1.9,2.492,1.293,4.06-1.887,2.28-1.828-3.42-3.73-4.061-3.67-.57-1.158-.285-1.585,1.354-.974.5-1.4-2.922.365-2.564-.792,2.136-3.23,1.175-2.56-1.674-.182-1.8-.853,1.478-.853,1.763-1.462-1.209-.855-1.924-.975-.142-1.1.286-1.95-.5-.61-.766-1.158-.659-.854-.16-1.463-.285-.548-.642-.976a2.091,2.091,0,0,1-.355-1.158c-1.71.123-1.425,1.464-1.853,2.621s.5.976.072,1.828-2.138-.122-1.639,1.1,1.424.548.5,1.889-4.631.243-4.345.792,2.635.426,2.92,1.219.072,1.339-.855,2.254-1.71.244-1.994,1.036.712,1.584.214,1.584-1.283-.305-1.211.488.854,1.035,1,2.071-.713.062-1.781.854,2.635,1.766,1.781,2.62-3.277-1.219-3.206-.122a1.589,1.589,0,0,0,.328.776,4.184,4.184,0,0,0-.575-.23c-1.873-.609-3.665-3.609-1.874-4.368a7.906,7.906,0,0,0,2.445-2.066c-.653,1.013-4.236-.265-4.725-.365s.325-2.686,1.547-3.65.815-2.532.489-1.671-3.5.913-3.627.457,2.243-2.178,1.673-2.178-1.956.606-2.281.051.162-3.65-.489-3.346-.572,3.6-.572,3.6c-.773.062-.65.748-1.751.481s-.06.683.428,1.6,1.406,2.128.55,2.469c-.764.306-1.336-.807-2.362-1.321a.985.985,0,0,0,.006-.624c-.274-.764-1.028-.117-1.919-.995s-1.094-1.407-.822-2.169,1.713-1.349,1.987-1.876-2.466.527-3.356-.762-.823-.643-.344-1.816-.879-1.144-1.156-2c-.822-2.565-2.009-1.418-2.6-3.037-1.592-4.32-3.3-1.439-3.382-.625s1.114,1.059-1.421,2.852c-.454.322-1.1.352-.616.939s.1.879-.155,1.4-1.148.294-.737,1.114.96,1.758.275,1.875-2.123.352-1.85.938,1.817.762,1.7,1.406-2.659,1.539-4.2,1.524c-1.193-.011.787,1.347,1.131,2.462.106.347-.028.5-.269.576-.051-.154-.4-.213-.67-.364-2.213-1.219-1.173-1.388-1.239-1.94s-1.56-2.512-2.948.426c-.519,1.1-1.554.32-2.269,2.063-.241.585-1.426.566-1.008,1.364.374.712.456.443-.084,1a1.357,1.357,0,0,1-.855-.382c-.366-.626.489-1.1,1.221-2.142s.549-1.043-.672-1.043.61-.994.672-1.933-2.013.836-2.746.105,2.44-1.566,1.525-2.245-3.112-1.1-2.99-1.986.793-1.1.854-1.773-.609-.418-1.037-.418.428-.679.183-1.356-.915-.1-1.709-.888-.976-1.254-.733-1.932,1.526-1.2,1.77-1.671-2.2.471-2.989-.677-.734-.575-.307-1.619-.783-1.02-1.029-1.786c-.733-2.284-1.789-1.263-2.32-2.7-1.419-3.848-2.944-1.282-3.013-.558s.994.945-1.266,2.542c-.4.285-.975.312-.549.835s.09.783-.136,1.252-1.024.262-.658.993.856,1.566.244,1.67a6.286,6.286,0,0,0-1.269.315c.32-.4.742-.654.8-1.13.082-.707-.815-.435-1.384-.435s.569-.707.245-1.414-1.222-.108-2.281-.923-1.3-1.305-.978-2.012,3.013-.6,3.34-1.086-3.91.488-4.969-.708,0-.6.571-1.683-1.385-.219-1.873-.98.568-.6.081-1.631-.162-2.228-2.118-2.338a1.565,1.565,0,0,1-.408,1.033c-.406.381-1.3.326-.732.87s.12.815-.185,1.305-1.365.272-.875,1.032,1.142,1.631.327,1.741-2.525.325-2.2.869,2.16.707,2.017,1.3a1.36,1.36,0,0,1-2.058.762c-1.1-.6.937,1.248,1.345,2.283s-1.956.325-2.932.706.244.87.57,1.251.406,1.466-.325,1.412a18.482,18.482,0,0,0-2.5.422c0-.018-.013-.038-.017-.056-.117-.629,1.388-.8,1.653-1.371s-1.133-.8-1.8-.913-.133-1.029.267-1.83-.467-.571-.717-1.083-.618-.8-.149-1.373-.268-.514-.6-.914a1.953,1.953,0,0,1-.332-1.085c-1.6.115-1.338,1.372-1.737,2.457s.468.915.067,1.713-2-.114-1.537,1.029,1.336.514.469,1.77-4.343.229-4.073.743,2.469.4,2.736,1.142.067,1.257-.8,2.115-1.6.229-1.87.971.668,1.483.2,1.483-1.2-.285-1.136.458.8.972.934,1.942-.667.058-1.669.8,2.471,1.658,1.669,2.457-3.07-1.143-3.005-.114,2.071,2.114.736,2.114-1.536,0-.736,1.141,2.538,1.657,2.139,2.343-2.806.457-2.74,1.314,1.269,1.085,1.6,2.056c0,.012,0,.021.006.033-.708-.192-1.587.45-3.631.223-2.486-.277-4.154-.5-5.651-1.371.216-.5.463-1.006.73-1.519.922.094,1.018.022,1.4-.526.464-.669,1.2-1.666-.175-1.824.048-.1.1-.19.146-.29a12.352,12.352,0,0,0,.807-2.216c.049-.014.1-.022.148-.037.751-.252.845-.472.043-.917.257-1.82-.3-2.927-2.421-1l-.085.074c-1.687-.3-3.406-.157-3.078-.9.421-.953,2.938-1.177,3.021-2.016.064-.634-2.2-.663-3.541-.926a13.037,13.037,0,0,0,.792-2.681c.7-.789.759-1.01.119-1.072a6.181,6.181,0,0,0-.179-1.919.738.738,0,0,0,.041-.181.233.233,0,0,0-.183-.28,3.92,3.92,0,0,0-.564-1.046,1.393,1.393,0,0,0-.73-.593c.051-.13.007-.255-.2-.376-1.26-.729-4.278-1.177-4.112-2.129s1.092-1.176,1.176-1.9-.841-.448-1.427-.448.586-.727.251-1.457-1.257-.111-2.348-.951a6.7,6.7,0,0,1-.581-.5c1.629-1.2,3.3-2.361,3.3-3.811,0-2.258-.2-2.78-1.829-1.042a15.693,15.693,0,0,1-1.494,1.4,2.832,2.832,0,0,1-2.083-.642c-1.09-1.232-1.007-.616-.42-1.736a.639.639,0,0,0-.116-.892c1.046-.936,1.585-1.547.456-3-1.5-1.924-1.1-.15-2.467.819a2.223,2.223,0,0,0-.532-.422,6.093,6.093,0,0,0,.968-3.871c-.406-3.3-1.219-1.565-2.031-.174s-2.944-4-3-6.256-.459-3.65-2.491-3.477a10.166,10.166,0,0,0-1.422,3.65c-.609,2.606.61,4.866,0,6.43s-1.421,3.649-3.25,1.564-2.438-1.373-1.626.878,3.86,5.726,1.016,6.247-3.047-.869-4.265-1.39c-.946-.4-.18,3.468.969,6.2a.393.393,0,0,0,.052.124,8.718,8.718,0,0,0,1.01,1.841,2.235,2.235,0,0,1,.407.75,17.8,17.8,0,0,0-2.646.157c-1.007.391.252.895.585,1.289a1.078,1.078,0,0,1,.206.447,4.691,4.691,0,0,1-1.009.137,5.156,5.156,0,0,1-3.638-1.216c-.5-.518-.356.808.242,2.677-.3.021-.606.035-.919.026-1.514-.041-.052.561,1.32,1.109a22.131,22.131,0,0,0,1.558,3.319c-.152-.019-.307-.036-.444-.06-1.594-.281-3.045-.56-3.074-.113s1.4,1.738,3.074,1.963a11.89,11.89,0,0,1,1.96.337c.184.221.346.409.5.582a.655.655,0,0,1-.009.144c-.142.612-1.447.646-2.414.709a13.546,13.546,0,0,1-4.114-2.43c.057-.291.113-.551.172-.741.629-2-.314-4.808-.733-2.9-.11.5-.66,1.006-1.436,1.474-.887-1.1-1.107-.546-1.1.573-2.23,1.01-5.29,1.684-6.468,1.4-1.884-.454.21-3.719,1.361-4.446s2.094-1.725,1.151-2.361-4.814,0-4.4-2.267,3.454-4.81,4.186-6.625,2.305-4.9.837-3.539-7.954,3.539-8.44,2.723,2.684-3.45,4.256-4.358,2.091-2.541-.316-3.631-4.71-1.088-2.407-2.447,3.978-10.893,3.139-9.077-5.442,4.9-6.07,4.72.418-4.811,1.989-6.536,1.046-4.537.627-2.994-4.5,1.634-4.659.818,2.88-3.9,2.148-3.9-2.513,1.088-2.931.091.209-6.535-.628-5.99-.734,6.444-.734,6.444c-1,.113-.838,1.339-2.25.862s-.078,1.225.548,2.858,1.807,3.812.707,4.424-1.883-1.975-3.533-2.655-.863,2.451.394,3.812,2.354,3.269,1.491,3.88-3.376-.137-5.183-1.157-.469,2.042,0,3.132a4.965,4.965,0,0,0,.982,1.156,11.337,11.337,0,0,1-4.78,2.279c-1.465.163-3.421-1.3-1.222-3.262s4.4-2.283,2.443-4.239-1.221.163-3.421.979,1.466-1.142.978-4.242-1.466-1.466-2.444-.161-3.539-3.751-3.6-5.871-.551-3.425-2.994-3.262A8.586,8.586,0,0,0,46.5,149.7c-.733,2.446.732,4.567,0,6.033s-1.71,3.424-3.91,1.469-2.933-1.289-1.954.822,4.642,5.374,1.221,5.864-3.665-.817-5.131-1.306.488,5.708,2.444,7.665-1.756,2.608-2.955,2.608a9.55,9.55,0,0,1-3.16-.485c2.016-1.119,4.267-1.8,3.154-3.231-1.141-1.464-2.168.389-5.588-.1s-5.7-.877-7.753-2.437-3.421-3.219-.571-2.829,2.851.584,3.534-.683,1.825-3.219-.8-3.219-4.1,1.17-5.245-1.17-3.648-3.023-.913-3.122,5.475.487,6.844-.1,1.14-1.073-1.483-2.536-6.614-.585-6.045-2.243,2.624-2.048,2.738-3.511-3.991-1.074-4.675-2.244,2.281-2.048,3.648-4S20.928,139,18.648,139s1.14-1.853,1.254-3.609-3.762,1.559-5.131.2,4.561-2.926,2.851-4.193-3.08.291-2.851-1.366,1.484-2.048,1.6-3.317-1.141-.78-1.938-.78.8-1.268.341-2.536-1.71-.195-3.192-1.659-1.824-2.34-1.368-3.609,4.218-1.072,4.674-1.949-5.474.877-6.955-1.27,0-1.074.8-3.023-1.938-.391-2.623-1.756.8-1.073.115-2.926-.23-4-2.965-4.195a3.34,3.34,0,0,1-.57,1.852c-.571.685-1.824.586-1.027,1.562s.169,1.463-.257,2.342c-.233.477-.77.584-1.109.8C.009,109.737-.137,109.99.175,110.611Z" fill="#1a2d47"/>
    <g id="Group_3" data-name="Group 3">
      <g id="Group_2" data-name="Group 2">
        <path id="Path_5" data-name="Path 5" d="M234.166,259.363l-.641,2.942h-1.091l2.242-9.813h1.237L238.1,262.3H236.99l-.64-2.942Zm2.023-.9-.509-2.49c-.146-.7-.278-1.514-.394-2.242h-.043c-.116.743-.263,1.586-.407,2.242l-.511,2.49Z" fill="#fff"/>
        <path id="Path_6" data-name="Path 6" d="M245.467,252.637a5.2,5.2,0,0,1,1.5-.19,3.285,3.285,0,0,1,2.3.743c.756.656,1.325,1.922,1.325,3.975,0,2.242-.554,3.465-1.18,4.15a3.482,3.482,0,0,1-2.709,1.047,6.2,6.2,0,0,1-1.236-.1Zm1.105,8.764a2.3,2.3,0,0,0,.423.03c1.237,0,2.432-.9,2.432-4.237,0-2.474-.757-3.829-2.329-3.829a2,2,0,0,0-.526.059Z" fill="#fff"/>
        <path id="Path_7" data-name="Path 7" d="M259.533,262.3l-2.242-9.813H258.5l.946,4.6c.233,1.105.525,2.517.7,3.77h.043c.147-1.266.423-2.635.657-3.8l.931-4.572h1.194l-2.286,9.813Z" fill="#fff"/>
        <path id="Path_8" data-name="Path 8" d="M273.774,257.646h-2.46v3.683h2.8v.976h-3.917v-9.813h3.743v.975h-2.621V256.7h2.46Z" fill="#fff"/>
        <path id="Path_9" data-name="Path 9" d="M281.493,262.3v-9.813h1.048l1.805,4.6c.408,1.062.918,2.358,1.253,3.421h.029c-.088-1.543-.131-2.81-.131-4.514v-3.508h1V262.3h-1.048l-1.863-4.718a31.38,31.38,0,0,1-1.18-3.334h-.029c.088,1.311.117,2.562.117,4.659V262.3Z" fill="#fff"/>
        <path id="Path_10" data-name="Path 10" d="M295.53,253.5h-1.791v-1h4.7v1h-1.79V262.3H295.53Z" fill="#fff"/>
        <path id="Path_11" data-name="Path 11" d="M306.773,252.492v6.58c0,1.762.6,2.359,1.325,2.359.83,0,1.368-.641,1.368-2.359v-6.58h1.121v6.4c0,2.548-1.048,3.524-2.5,3.524-1.471,0-2.432-.961-2.432-3.393v-6.536Z" fill="#fff"/>
        <path id="Path_12" data-name="Path 12" d="M318.466,252.637a6.186,6.186,0,0,1,1.6-.19,3.019,3.019,0,0,1,2.214.7,2.639,2.639,0,0,1,.684,1.921,2.594,2.594,0,0,1-1.572,2.535v.028c.727.219,1.106.917,1.31,2.2a13.375,13.375,0,0,0,.568,2.476h-1.135a12.7,12.7,0,0,1-.525-2.417c-.218-1.354-.64-1.85-1.6-1.85h-.437V262.3h-1.106Zm1.106,4.528h.481a1.775,1.775,0,0,0,1.776-1.965c0-1.136-.466-1.835-1.66-1.849a2.327,2.327,0,0,0-.6.057Z" fill="#fff"/>
        <path id="Path_13" data-name="Path 13" d="M334.12,257.646h-2.461v3.683h2.8v.976h-3.916v-9.813h3.742v.975h-2.621V256.7h2.461Z" fill="#fff"/>
      </g>
      <rect id="Rectangle_4" data-name="Rectangle 4" width="126.248" height="23.91" transform="translate(220.341 245.939)" fill="none" stroke="#fff" stroke-miterlimit="10" stroke-width="0.25"/>
    </g>
  </g>
</svg>
